<svg width="48" height="44" viewBox="0 0 48 44" fill="none" xmlns="http://www.w3.org/2000/svg">
<path d="M21.7763 6.28082C21.7763 6.48626 21.6941 6.67116 21.5298 6.83551C21.4065 6.95878 21.2422 7.02041 21.0367 7.02041H7.78571C7.58027 7.02041 7.47755 7.12313 7.47755 7.32857V18.9771C7.47755 19.1826 7.58027 19.2853 7.78571 19.2853H15.6131C15.8185 19.2853 15.9829 19.3675 16.1061 19.5318C16.2705 19.6551 16.3527 19.8195 16.3527 20.0249V24.7706C16.3527 24.9761 16.2705 25.161 16.1061 25.3253C15.9829 25.4486 15.8185 25.5102 15.6131 25.5102H7.78571C7.58027 25.5102 7.47755 25.6129 7.47755 25.8184V43.2604C7.47755 43.4659 7.39537 43.6507 7.23102 43.8151C7.10775 43.9384 6.9434 44 6.73796 44H1.06775C0.862313 44 0.677415 43.9384 0.513061 43.8151C0.389796 43.6507 0.328163 43.4659 0.328163 43.2604V1.59674C0.328163 1.39129 0.389796 1.22694 0.513061 1.10367C0.677415 0.93932 0.862313 0.857143 1.06775 0.857143H21.0367C21.2422 0.857143 21.4065 0.93932 21.5298 1.10367C21.6941 1.22694 21.7763 1.39129 21.7763 1.59674V6.28082Z" fill="#FCAA29"/>
<path d="M47.3563 6.28082C47.3563 6.48626 47.2741 6.67116 47.1098 6.83551C46.9865 6.95878 46.8221 7.02041 46.6167 7.02041H33.3657C33.1602 7.02041 33.0575 7.12313 33.0575 7.32857V18.9771C33.0575 19.1826 33.1602 19.2853 33.3657 19.2853H41.193C41.3985 19.2853 41.5628 19.3675 41.6861 19.5318C41.8504 19.6551 41.9326 19.8195 41.9326 20.0249V24.7706C41.9326 24.9761 41.8504 25.161 41.6861 25.3253C41.5628 25.4486 41.3985 25.5102 41.193 25.5102H33.3657C33.1602 25.5102 33.0575 25.6129 33.0575 25.8184V43.2604C33.0575 43.4659 32.9753 43.6507 32.811 43.8151C32.6877 43.9384 32.5234 44 32.3179 44H26.6477C26.4423 44 26.2574 43.9384 26.093 43.8151C25.9698 43.6507 25.9081 43.4659 25.9081 43.2604V1.59674C25.9081 1.39129 25.9698 1.22694 26.093 1.10367C26.2574 0.93932 26.4423 0.857143 26.6477 0.857143H46.6167C46.8221 0.857143 46.9865 0.93932 47.1098 1.10367C47.2741 1.22694 47.3563 1.39129 47.3563 1.59674V6.28082Z" fill="#F5906F"/>
</svg>
